<svg id="visual" viewBox="0 0 900 600" width="900" height="600" xmlns="http://www.w3.org/2000/svg" xmlns:xlink="http://www.w3.org/1999/xlink" version="1.1"><path d="M0 73L129 49L257 109L386 109L514 67L643 49L771 55L900 127L900 0L771 0L643 0L514 0L386 0L257 0L129 0L0 0Z" fill="#f4fab1"></path><path d="M0 199L129 163L257 187L386 247L514 169L643 217L771 127L900 265L900 125L771 53L643 47L514 65L386 107L257 107L129 47L0 71Z" fill="#d3de94"></path><path d="M0 283L129 253L257 343L386 361L514 451L643 433L771 397L900 343L900 263L771 125L643 215L514 167L386 245L257 185L129 161L0 197Z" fill="#b2c278"></path><path d="M0 517L129 523L257 505L386 541L514 559L643 529L771 559L900 535L900 341L771 395L643 431L514 449L386 359L257 341L129 251L0 281Z" fill="#92a75d"></path><path d="M0 601L129 601L257 601L386 601L514 601L643 601L771 601L900 601L900 533L771 557L643 527L514 557L386 539L257 503L129 521L0 515Z" fill="#728c44"></path></svg>